<svg width="18" height="18" viewBox="0 0 18 18" fill="none" xmlns="http://www.w3.org/2000/svg">
<path d="M15.1875 5.25C15.1875 5.00136 15.0887 4.76297 14.9128 4.58716C14.7591 4.4334 14.5575 4.33827 14.343 4.31689L14.25 4.3125H3.75C3.50136 4.3125 3.26297 4.41134 3.08716 4.58716C2.91134 4.76297 2.8125 5.00136 2.8125 5.25V12.75C2.8125 12.9986 2.91134 13.237 3.08716 13.4128C3.26297 13.5887 3.50136 13.6875 3.75 13.6875H14.25C14.4986 13.6875 14.737 13.5887 14.9128 13.4128C15.0887 13.237 15.1875 12.9986 15.1875 12.75V5.25ZM16.3125 12.75C16.3125 13.297 16.095 13.8215 15.7083 14.2083C15.3215 14.595 14.797 14.8125 14.25 14.8125H3.75C3.20299 14.8125 2.67854 14.595 2.29175 14.2083C1.90495 13.8215 1.6875 13.297 1.6875 12.75V5.25C1.6875 4.70299 1.90495 4.17854 2.29175 3.79175C2.67854 3.40495 3.20299 3.1875 3.75 3.1875H14.25C14.797 3.1875 15.3215 3.40495 15.7083 3.79175C16.095 4.17854 16.3125 4.70299 16.3125 5.25V12.75Z" fill="#019A44"/>
<path d="M15.438 4.78203C15.6965 4.60971 16.0457 4.67955 16.2181 4.93804C16.3904 5.19652 16.3205 5.54574 16.0621 5.71807L9.31206 10.2181C9.12312 10.344 8.87698 10.344 8.68804 10.2181L1.93804 5.71807C1.67955 5.54574 1.60971 5.19652 1.78203 4.93804C1.95436 4.67955 2.30358 4.60971 2.56206 4.78203L9.00005 9.07403L15.438 4.78203Z" fill="#019A44"/>
</svg>
