<svg width="18" height="18" viewBox="0 0 18 18" fill="none" xmlns="http://www.w3.org/2000/svg">
<path d="M10.6875 8.25C10.6875 7.80245 10.5096 7.37335 10.1931 7.05688C9.87665 6.74042 9.44755 6.5625 9 6.5625C8.55245 6.5625 8.12335 6.74042 7.80688 7.05688C7.49042 7.37335 7.3125 7.80245 7.3125 8.25C7.3125 8.69755 7.49042 9.12665 7.80688 9.44312C8.12335 9.75958 8.55245 9.9375 9 9.9375C9.44755 9.9375 9.87665 9.75958 10.1931 9.44312C10.5096 9.12665 10.6875 8.69755 10.6875 8.25ZM11.8125 8.25C11.8125 8.99592 11.516 9.71108 10.9885 10.2385C10.4611 10.766 9.74592 11.0625 9 11.0625C8.25408 11.0625 7.53892 10.766 7.01147 10.2385C6.48403 9.71108 6.1875 8.99592 6.1875 8.25C6.1875 7.50408 6.48403 6.78892 7.01147 6.26147C7.53892 5.73403 8.25408 5.4375 9 5.4375C9.74592 5.4375 10.4611 5.73403 10.9885 6.26147C11.516 6.78892 11.8125 7.50408 11.8125 8.25Z" fill="#019A44"/>
<path d="M9.00009 1.6875C10.298 1.6875 11.5669 2.07238 12.6461 2.79346C13.7252 3.51453 14.5664 4.53943 15.0631 5.73853C15.5598 6.93765 15.6898 8.25728 15.4366 9.53027C15.1834 10.8032 14.5584 11.9729 13.6407 12.8906L10.4583 16.0723V16.073C10.0717 16.4592 9.54733 16.6757 9.00082 16.6758C8.45418 16.6758 7.9293 16.4593 7.54257 16.073V16.0723L4.35946 12.8906C3.44174 11.9729 2.81677 10.8032 2.56357 9.53027C2.31038 8.25728 2.44039 6.93765 2.9371 5.73853C3.4338 4.53944 4.27494 3.51453 5.35409 2.79346C6.43328 2.07238 7.70217 1.6875 9.00009 1.6875ZM9.00009 2.8125C7.92467 2.8125 6.87303 3.13129 5.97885 3.72876C5.08476 4.32622 4.38794 5.17571 3.97641 6.16919C3.5649 7.16268 3.45758 8.25586 3.66733 9.31055C3.87709 10.3652 4.3946 11.3341 5.15487 12.0945L8.33798 15.2769L8.40683 15.3391C8.57358 15.4756 8.78347 15.5508 9.00082 15.5508C9.24914 15.5507 9.48723 15.4523 9.66293 15.2769L12.8453 12.0945C13.6056 11.3341 14.1231 10.3652 14.3329 9.31055C14.5426 8.25585 14.4353 7.16268 14.0238 6.16919C13.6122 5.17571 12.9154 4.32622 12.0213 3.72876C11.1271 3.13129 10.0755 2.8125 9.00009 2.8125Z" fill="#019A44"/>
</svg>
